<svg xmlns="http://www.w3.org/2000/svg" viewBox="0 0 3000 1074.93"><g id="Capa_2" data-name="Capa 2"><g id="Capa_1-2" data-name="Capa 1"><path d="M537.46,0C240.63,0,0,240.63,0,537.47s240.63,537.46,537.46,537.46,537.47-240.63,537.47-537.46S834.3,0,537.46,0ZM891.83,528.7c-10.29,8.95-29.66,23.13-29.66,23.13a42.82,42.82,0,0,0,3.76,11.7c2.71,5.19,9.41,12.9,7.37,19.94S857,596,861.05,603.8,875.23,614,872.32,621s-17.06,19.1-15.65,24.33,12.9,53.41-13.57,61.82c-19.92,6.31-74.67,9.9-100.38,11.26a32.18,32.18,0,0,0-26.45,16.62,90.2,90.2,0,0,0-9.87,30.78c-5,34.14-38.72,112.51-38.72,112.51s-1.61,3.66-3.24,7.52a17.83,17.83,0,0,1-11.59,10.29,394.41,394.41,0,0,1-237.34-8.8,17.94,17.94,0,0,1-10.55-24c6.87-15.84,12.64-31.66,16.92-44.34,1.86-5.51,3.95-10.92,6.22-16.28,6.6-15.57,20.12-47.08,29.19-66.24,96.73,21.42,155.56-32.56,170.84-49a4.11,4.11,0,0,0-1.79-6.68c-49.22-16.53-112.63-4-156,28.88C484.12,682,499.68,653,516.67,624.33c100.51,13.72,153.86-46.17,167.27-63.93a4.06,4.06,0,0,0-2.36-6.38c-46.67-11.32-102.81,3.42-142.88,34.73,11.6-17.91,23.73-35.37,36.33-52,104.78-48.92,120-144.18,122.22-168.91a4,4,0,0,0-5.35-4.16C668.16,372,577.82,411.29,559.73,530.91c-6.68,8.94-16.9,23.19-29.49,42.43,17.37-72.36-10.68-122.59-21-137.91a4,4,0,0,0-6.82.19c-11.9,19.83-49.62,95,1,180.82-13.75,23.22-28.8,50.4-44.28,81.32,5.25-84-39.51-130.52-54.23-143.42a4,4,0,0,0-6.5,1.81c-6.73,21.59-25.18,102.18,45,174.11-8.75,18.68-17.53,38.52-26.19,59.44-.64-.23-1.18-.42-1.54-.52a155.43,155.43,0,0,1-35.13-15.56,142.43,142.43,0,0,0-28.67-13.15c-39-12.79-33.25-31.59-53.61-69.22-1.33-2.45-17.43-19.26-20.89-22.31-.84-.74-11.13-6.72-16.35-17.74a89.31,89.31,0,0,1-8.49-28.62c-1.31-12.25-6.37-20.3-18.32-24.44-57.38-19.83-31.7-94.25-29.71-104.24,1.71-8.43-5.69-26.83-8.41-37-.24-1.22-.56-2.72-1-4.54-4.16-20,5.15-36.87,12-43.81s30.7-18,35.73-24.6c4.93-6.39,8.85-13.71,13.91-20,6.69-8.33,27.13-24.63,54.74-39.43,16.71-8.93,19.65-32.3,26-39.45,10.88-12.28,27.37-12.28,39.61-23.33,6.18-5.57,15.13-8.35,20.87-14.23,28.43-29.14,66.53-40.94,104.22-48,25.38-4.74,53.65,2.55,80.18,7.07a100.22,100.22,0,0,1,11.21,2.66c59.56,2,131.26,14.43,157.16,39.7a109.68,109.68,0,0,1,27.89,44.82,174.53,174.53,0,0,0,17.55,37.71l15.92,25.93a73.38,73.38,0,0,1,9.06,54.88c-2.48,10.7-3.79,21.91-.6,28.14,5,9.74,20.25,25.57,29.41,34.63a86.08,86.08,0,0,0,14.64,11.59c12.25,7.76,35.48,22.62,35.51,23.9C900.21,512.38,902.11,519.75,891.83,528.7Z"/><polygon points="1611.91 717.38 1611.91 503.01 1534.37 659.1 1488.76 659.1 1411.22 503.01 1411.22 717.38 1328.1 717.38 1328.1 357.56 1418.31 357.56 1511.57 545.58 1605.32 357.56 1695.02 357.56 1695.02 717.38 1611.91 717.38"/><polygon points="2067.51 644.4 2067.51 717.38 1814.62 717.38 1814.62 357.56 2062.95 357.56 2062.95 430.53 1897.73 430.53 1897.73 500.47 2039.63 500.47 2039.63 567.87 1897.73 567.87 1897.73 644.4 2067.51 644.4"/><polygon points="2443.04 430.53 2333.58 430.53 2333.58 717.38 2250.46 717.38 2250.46 430.53 2140.49 430.53 2140.49 357.56 2443.04 357.56 2443.04 430.53"/><rect x="2534.26" y="357.56" width="83.12" height="359.82"/><path d="M2952.86,463.47q-1.52-2.52-10.64-7.85a235.81,235.81,0,0,0-22.8-11.4,219,219,0,0,0-29.9-10.64,119,119,0,0,0-32.44-4.56q-21.28,0-32.94,7.3t-11.66,22.39q0,12.07,8.87,19.12t25.6,12.34q16.71,5.28,41.05,12.32,34.45,9.06,59.8,21.9t38.77,33Q3000,577.49,3000,610.7q0,30.21-11.15,51.09a92.7,92.7,0,0,1-30.16,33.72,130.61,130.61,0,0,1-43.33,18.61,215.88,215.88,0,0,1-50.17,5.79,284.87,284.87,0,0,1-54-5.32,303.71,303.71,0,0,1-53-15.2,242.84,242.84,0,0,1-46.62-24.07l36.49-72.47q2,2.53,13.18,9.37a239.77,239.77,0,0,0,27.62,14.19,256.81,256.81,0,0,0,36.74,12.92,153.53,153.53,0,0,0,41.05,5.58q22.29,0,33.2-6.95t10.89-19.35q0-13.61-11.4-21.17t-30.92-13.6q-19.52-6-44.85-13.61-33-10.08-54.48-22.68t-31.93-30.74q-10.38-18.15-10.38-45.37,0-37.8,18-63.75t48.39-39.31Q2823.64,355,2859.61,355a195.19,195.19,0,0,1,48.91,6.08,282.33,282.33,0,0,1,44.09,15.21q20.54,9.12,36.74,18.24Z"/></g></g></svg>