<svg xmlns="http://www.w3.org/2000/svg" viewBox="0 0 1257.86 1502.6"><g id="Capa_2" data-name="Capa 2"><g id="Capa_1-2" data-name="Capa 1"><path d="M628.93,0C332.09,0,91.46,240.63,91.46,537.47s240.63,537.47,537.47,537.47,537.46-240.64,537.46-537.47S925.76,0,628.93,0ZM983.29,528.7c-10.29,8.95-29.65,23.13-29.65,23.13a42.61,42.61,0,0,0,3.75,11.7c2.72,5.19,9.41,12.9,7.37,19.94S948.43,596,952.51,603.8,966.69,614,963.78,621s-17.06,19.1-15.64,24.33,12.89,53.41-13.58,61.82c-19.92,6.31-74.67,9.9-100.38,11.26a32.2,32.2,0,0,0-26.45,16.62,90.2,90.2,0,0,0-9.87,30.78c-5,34.15-38.72,112.51-38.72,112.51s-1.61,3.66-3.24,7.52a17.83,17.83,0,0,1-11.59,10.29A394.41,394.41,0,0,1,507,887.35a17.92,17.92,0,0,1-10.54-24c6.86-15.84,12.64-31.66,16.92-44.34,1.85-5.51,3.94-10.92,6.21-16.28,6.6-15.57,20.12-47.08,29.19-66.24,96.73,21.42,155.56-32.56,170.84-49a4.11,4.11,0,0,0-1.79-6.68c-49.21-16.53-112.63-4-156,28.88C575.58,682,591.15,653,608.13,624.33,708.64,638.05,762,578.17,775.4,560.4A4.06,4.06,0,0,0,773,554c-46.66-11.32-102.81,3.42-142.88,34.73,11.6-17.91,23.73-35.37,36.33-52,104.78-48.92,120-144.18,122.22-168.91a4,4,0,0,0-5.35-4.16C759.62,372,669.28,411.29,651.19,530.91c-6.68,8.94-16.9,23.19-29.49,42.43,17.37-72.36-10.68-122.59-21-137.91a4,4,0,0,0-6.83.19c-11.89,19.83-49.61,95,1,180.82-13.75,23.22-28.81,50.4-44.29,81.32,5.26-84-39.5-130.52-54.23-143.42a4,4,0,0,0-6.5,1.81c-6.73,21.59-25.17,102.18,45,174.11-8.75,18.68-17.53,38.52-26.19,59.44-.63-.23-1.18-.42-1.54-.52A155.19,155.19,0,0,1,472,773.62a142.51,142.51,0,0,0-28.68-13.15c-39-12.79-33.25-31.59-53.61-69.22-1.33-2.45-17.43-19.26-20.89-22.31-.84-.74-11.13-6.72-16.35-17.74A89.31,89.31,0,0,1,344,622.58c-1.31-12.25-6.37-20.3-18.31-24.44C268.28,578.31,294,503.89,296,493.9c1.71-8.43-5.69-26.83-8.42-37-.24-1.22-.56-2.72-1-4.54-4.16-20,5.15-36.87,12-43.81s30.69-18,35.72-24.6c4.93-6.39,8.85-13.71,13.91-20,6.69-8.33,27.13-24.63,54.75-39.43,16.7-8.93,19.64-32.3,26-39.46,10.88-12.27,27.37-12.27,39.62-23.32,6.18-5.57,15.13-8.35,20.87-14.23,28.43-29.14,66.52-40.94,104.21-48,25.38-4.74,53.65,2.55,80.18,7.07a99.7,99.7,0,0,1,11.21,2.66c59.56,2,131.26,14.43,157.16,39.7a109.57,109.57,0,0,1,27.89,44.82,175,175,0,0,0,17.55,37.71l15.92,25.93a73.33,73.33,0,0,1,9.06,54.88c-2.47,10.7-3.78,21.91-.6,28.14,5,9.74,20.25,25.57,29.42,34.63a85.3,85.3,0,0,0,14.64,11.59c12.24,7.76,35.48,22.62,35.5,23.9C991.67,512.38,993.57,519.75,983.29,528.7Z"/><polygon points="213.52 1500.7 213.52 1339.41 155.19 1456.85 120.87 1456.85 62.53 1339.41 62.53 1500.7 0 1500.7 0 1229.98 67.87 1229.98 138.03 1371.44 208.57 1229.98 276.05 1229.98 276.05 1500.7 213.52 1500.7"/><polygon points="556.29 1445.79 556.29 1500.7 366.03 1500.7 366.03 1229.98 552.86 1229.98 552.86 1284.89 428.56 1284.89 428.56 1337.5 535.32 1337.5 535.32 1388.22 428.56 1388.22 428.56 1445.79 556.29 1445.79"/><polygon points="838.83 1284.89 756.47 1284.89 756.47 1500.7 693.94 1500.7 693.94 1284.89 611.2 1284.89 611.2 1229.98 838.83 1229.98 838.83 1284.89"/><rect x="907.45" y="1229.98" width="62.53" height="270.71"/><path d="M1222.39,1309.67q-1.14-1.9-8-5.91a179.28,179.28,0,0,0-17.16-8.58,165.22,165.22,0,0,0-22.5-8,89.71,89.71,0,0,0-24.4-3.43q-16,0-24.78,5.49t-8.77,16.85q0,9.08,6.67,14.38t19.26,9.28q12.57,4,30.88,9.27,25.92,6.82,45,16.48t29.17,24.8q10.1,15.15,10.11,40.14,0,22.72-8.4,38.43a69.53,69.53,0,0,1-22.68,25.37,98.42,98.42,0,0,1-32.6,14,162.66,162.66,0,0,1-37.75,4.35,214.29,214.29,0,0,1-40.61-4,228.11,228.11,0,0,1-39.84-11.44,182.45,182.45,0,0,1-35.08-18.11l27.45-54.52q1.53,1.9,9.92,7a180.59,180.59,0,0,0,20.78,10.67,194.2,194.2,0,0,0,27.64,9.73,115.74,115.74,0,0,0,30.88,4.19q16.79,0,25-5.22t8.2-14.56a18.09,18.09,0,0,0-8.58-15.93q-8.58-5.68-23.26-10.23T1125.17,1390q-24.8-7.59-41-17.07t-24-23.12q-7.82-13.66-7.81-34.14,0-28.42,13.54-48a84.47,84.47,0,0,1,36.41-29.57,122.76,122.76,0,0,1,49.94-10.06,146.72,146.72,0,0,1,36.8,4.58,212.27,212.27,0,0,1,33.17,11.44q15.45,6.86,27.65,13.73Z"/></g></g></svg>