<svg xmlns="http://www.w3.org/2000/svg" viewBox="0 0 1257.86 1502.6"><defs><style>.cls-1{fill:#00d2ff;}.cls-2{fill:#fff;}</style></defs><g id="Capa_2" data-name="Capa 2"><g id="Capa_1-2" data-name="Capa 1"><path class="cls-1" d="M1166.39,537.47C1166.39,240.63,925.76,0,628.93,0S91.46,240.63,91.46,537.47s240.63,537.46,537.47,537.46,537.46-240.63,537.46-537.46"/><path d="M991.64,510.64c0-1.28-23.26-16.14-35.5-23.9a85.3,85.3,0,0,1-14.64-11.59c-9.17-9.06-24.44-24.89-29.42-34.63-3.18-6.23-1.87-17.44.6-28.14a73.33,73.33,0,0,0-9.06-54.88L887.7,331.57a175,175,0,0,1-17.55-37.71A109.57,109.57,0,0,0,842.26,249c-25.9-25.27-97.6-37.71-157.16-39.7a99.7,99.7,0,0,0-11.21-2.66c-26.53-4.52-54.8-11.81-80.18-7.07-37.69,7-75.78,18.82-104.21,48-5.74,5.88-14.69,8.66-20.87,14.23-12.25,11.05-28.74,11.05-39.62,23.33-6.37,7.15-9.31,30.52-26,39.45-27.62,14.8-48.06,31.1-54.75,39.43-5.06,6.25-9,13.57-13.91,20-5,6.56-28.81,17.66-35.72,24.6s-16.19,23.84-12,43.81c.39,1.82.71,3.32,1,4.54,2.73,10.15,10.13,28.55,8.42,37-2,10-27.68,84.41,29.71,104.24,11.94,4.14,17,12.19,18.31,24.44a89.31,89.31,0,0,0,8.49,28.62c5.22,11,15.51,17,16.35,17.74,3.46,3,19.56,19.86,20.89,22.31,20.36,37.63,14.64,56.43,53.61,69.22A142.51,142.51,0,0,1,472,773.62a155.19,155.19,0,0,0,35.12,15.56c.36.1.91.29,1.54.52,8.66-20.92,17.44-40.76,26.19-59.44-70.15-71.93-51.71-152.52-45-174.11a4,4,0,0,1,6.5-1.81c14.73,12.9,59.49,59.42,54.23,143.42,15.48-30.92,30.54-58.1,44.29-81.32-50.62-85.79-12.9-161-1-180.82a4,4,0,0,1,6.83-.19c10.31,15.32,38.36,65.55,21,137.91,12.59-19.24,22.81-33.49,29.49-42.43C669.28,411.29,759.62,372,783.36,363.72a4,4,0,0,1,5.35,4.16c-2.19,24.73-17.44,120-122.22,168.91-12.6,16.59-24.73,34.05-36.33,52,40.07-31.31,96.22-46,142.88-34.73a4.06,4.06,0,0,1,2.36,6.38c-13.41,17.76-66.76,77.65-167.27,63.93-17,28.63-32.55,57.65-46.37,85.39,43.41-32.83,106.83-45.41,156-28.88a4.11,4.11,0,0,1,1.79,6.68c-15.28,16.44-74.11,70.42-170.84,49-9.07,19.16-22.59,50.67-29.19,66.24-2.27,5.36-4.36,10.77-6.21,16.28-4.28,12.68-10.06,28.5-16.92,44.34a17.92,17.92,0,0,0,10.54,24,394.41,394.41,0,0,0,237.34,8.8,17.83,17.83,0,0,0,11.59-10.29c1.63-3.86,3.24-7.52,3.24-7.52S792.88,800,797.86,765.83a90.2,90.2,0,0,1,9.87-30.78,32.2,32.2,0,0,1,26.45-16.62c25.71-1.36,80.46-4.95,100.38-11.26,26.47-8.41,15-56.63,13.57-61.82s12.74-17.28,15.65-24.33-7.15-9.47-11.27-17.22,10.21-13.3,12.25-20.33-4.65-14.75-7.37-19.94a42.61,42.61,0,0,1-3.75-11.7S973,537.65,983.29,528.7s8.38-16.32,8.35-18.06"/><polygon class="cls-2" points="213.52 1500.7 213.52 1339.41 155.19 1456.85 120.87 1456.85 62.53 1339.41 62.53 1500.7 0 1500.7 0 1229.98 67.87 1229.98 138.03 1371.44 208.57 1229.98 276.05 1229.98 276.05 1500.7 213.52 1500.7"/><polygon class="cls-2" points="556.29 1445.79 556.29 1500.7 366.03 1500.7 366.03 1229.98 552.86 1229.98 552.86 1284.89 428.56 1284.89 428.56 1337.5 535.32 1337.5 535.32 1388.22 428.56 1388.22 428.56 1445.79 556.29 1445.79"/><polygon class="cls-2" points="838.83 1284.89 756.47 1284.89 756.47 1500.7 693.94 1500.7 693.94 1284.89 611.2 1284.89 611.2 1229.98 838.83 1229.98 838.83 1284.89"/><rect class="cls-2" x="907.45" y="1229.98" width="62.53" height="270.71"/><path class="cls-2" d="M1222.39,1309.67q-1.14-1.9-8-5.91a179.28,179.28,0,0,0-17.16-8.58,165.22,165.22,0,0,0-22.5-8,89.71,89.71,0,0,0-24.4-3.43q-16,0-24.78,5.49t-8.77,16.85q0,9.08,6.67,14.38t19.26,9.28q12.57,4,30.88,9.27,25.92,6.82,45,16.48t29.17,24.8q10.1,15.15,10.11,40.14,0,22.72-8.4,38.43a69.61,69.61,0,0,1-22.68,25.37,98.42,98.42,0,0,1-32.6,14,162.66,162.66,0,0,1-37.75,4.35,214.29,214.29,0,0,1-40.61-4,228.11,228.11,0,0,1-39.84-11.44,182.45,182.45,0,0,1-35.08-18.11l27.45-54.52q1.53,1.9,9.92,7a180.59,180.59,0,0,0,20.78,10.67,194.2,194.2,0,0,0,27.64,9.73,115.74,115.74,0,0,0,30.88,4.19q16.79,0,25-5.22t8.2-14.56a18.09,18.09,0,0,0-8.58-15.93q-8.58-5.68-23.26-10.23T1125.17,1390q-24.8-7.59-41-17.07t-24-23.12q-7.82-13.66-7.81-34.14,0-28.42,13.54-48a84.47,84.47,0,0,1,36.41-29.57,122.76,122.76,0,0,1,49.94-10.06,146.72,146.72,0,0,1,36.8,4.58,212.27,212.27,0,0,1,33.17,11.44q15.45,6.86,27.65,13.73Z"/></g></g></svg>